<svg id="Capa_1" enable-background="new 0 0 511.999 511.999" height="512" viewBox="0 0 511.999 511.999" width="512" xmlns="http://www.w3.org/2000/svg"><g><path d="m211.46 141.942c-8.915 0-16.168 7.252-16.168 16.167v26.307h-22.354c-8.914 0-16.167 7.253-16.167 16.167v58.744 58.262c0 8.915 7.253 16.167 16.167 16.167h65.56c4.143 0 7.5-3.358 7.5-7.5s-3.357-7.5-7.5-7.5h-65.56c-.622 0-1.167-.545-1.167-1.167v-42.137c.386.027.774.042 1.167.042h22.354v1.295c0 4.142 3.357 7.5 7.5 7.5s7.5-3.358 7.5-7.5v-1.295h91.413v1.295c0 4.142 3.357 7.5 7.5 7.5s7.5-3.358 7.5-7.5v-1.295h22.354c.393 0 .781-.014 1.167-.042v42.137c0 .622-.545 1.167-1.167 1.167h-65.561c-4.143 0-7.5 3.358-7.5 7.5s3.357 7.5 7.5 7.5h65.561c8.914 0 16.167-7.252 16.167-16.167v-58.262-58.744c0-8.915-7.253-16.167-16.167-16.167h-22.354v-26.307c0-8.915-7.253-16.167-16.167-16.167zm-1.168 57.475h91.413v11.464c0 2.924-2.379 5.302-5.303 5.302h-80.808c-2.874 0-5.303-2.428-5.303-5.302v-11.464zm106.414 11.464v-11.464h22.354c.622 0 1.167.545 1.167 1.167v58.744c0 .622-.545 1.167-1.167 1.167h-22.354v-7.195c0-4.142-3.357-7.5-7.5-7.5s-7.5 3.358-7.5 7.5v7.195h-91.413v-7.195c0-4.142-3.357-7.5-7.5-7.5s-7.5 3.358-7.5 7.5v7.195h-22.354c-.622 0-1.167-.545-1.167-1.167v-58.744c0-.622.545-1.167 1.167-1.167h22.354v11.464c0 11.195 9.107 20.302 20.303 20.302h80.808c11.194 0 20.302-9.107 20.302-20.302zm-15-52.772v26.307h-91.413v-26.307c0-.622.546-1.167 1.168-1.167h89.078c.622 0 1.167.546 1.167 1.167z"/><path d="m347.726 360.206h-144.934c-4.143 0-7.5 3.358-7.5 7.5s3.357 7.5 7.5 7.5h144.934c4.143 0 7.5-3.358 7.5-7.5s-3.357-7.5-7.5-7.5z"/><path d="m347.726 391.429h-144.934c-4.143 0-7.5 3.358-7.5 7.5s3.357 7.5 7.5 7.5h144.934c4.143 0 7.5-3.358 7.5-7.5s-3.357-7.5-7.5-7.5z"/><path d="m347.726 422.651h-144.934c-4.143 0-7.5 3.358-7.5 7.5s3.357 7.5 7.5 7.5h144.934c4.143 0 7.5-3.358 7.5-7.5s-3.357-7.5-7.5-7.5z"/><path d="m173.198 360.206h-8.926c-4.143 0-7.5 3.358-7.5 7.5s3.357 7.5 7.5 7.5h8.926c4.143 0 7.5-3.358 7.5-7.5s-3.358-7.5-7.5-7.5z"/><path d="m173.198 391.429h-8.926c-4.143 0-7.5 3.358-7.5 7.5s3.357 7.5 7.5 7.5h8.926c4.143 0 7.5-3.358 7.5-7.5s-3.358-7.5-7.5-7.5z"/><path d="m173.198 422.651h-8.926c-4.143 0-7.5 3.358-7.5 7.5s3.357 7.5 7.5 7.5h8.926c4.143 0 7.5-3.358 7.5-7.5s-3.358-7.5-7.5-7.5z"/><path d="m256 0c-17.952 0-32.558 14.605-32.558 32.557v.593h-10.418c-7.026 0-13.092 4.118-15.96 10.057h-94.801c-18.206 0-33.018 14.812-33.018 33.018v402.756c0 18.206 14.812 33.018 33.019 33.018h307.473c18.206 0 33.019-14.812 33.019-33.018v-205.481c0-4.142-3.357-7.5-7.5-7.5s-7.5 3.358-7.5 7.5v205.481c0 9.935-8.083 18.018-18.019 18.018h-307.474c-9.936 0-18.019-8.083-18.019-18.018v-402.756c0-9.935 8.083-18.018 18.018-18.018h93.03v15h-83.488c-6.926 0-12.561 5.634-12.561 12.56v383.673c0 6.926 5.635 12.56 12.561 12.56h288.39c6.926 0 12.56-5.634 12.56-12.56v-321.009c0-1.886-.728-3.835-2.196-5.303l-67.725-67.725c-1.355-1.355-3.291-2.197-5.304-2.197h-20.823v-15h93.03c9.936 0 18.019 8.083 18.019 18.018v162.276c0 4.142 3.357 7.5 7.5 7.5s7.5-3.358 7.5-7.5v-162.276c0-18.206-14.812-33.018-33.019-33.018h-94.801c-2.868-5.939-8.934-10.057-15.959-10.057h-10.419v-.593c-.001-17.951-14.605-32.556-32.557-32.556zm-17.558 32.557c0-9.681 7.876-17.557 17.558-17.557 9.681 0 17.557 7.876 17.557 17.557v.593h-35.114v-.593zm106.587 66.255 42.118 42.118h-30.82c-6.229 0-11.298-5.068-11.298-11.297zm-30.094-10.606h15.094v41.427c0 14.5 11.797 26.297 26.298 26.297h41.427v311.068h-283.51v-378.792h82.82c2.963 6.135 9.2 10.057 15.96 10.057h85.951c6.56 0 12.908-3.738 15.96-10.057zm-15.96-40.057c1.482 0 2.685 1.188 2.723 2.66 0 .007-.001.014-.001.022.001.082.004.163.008.245v29.387c-.001.039-.007.077-.008.117-.024 1.48-1.246 2.684-2.723 2.684h-85.951c-1.477 0-2.699-1.204-2.724-2.684-.001-.039-.007-.077-.008-.117v-29.4c.004-.083.007-.166.008-.231 0-.007-.001-.014-.001-.022.038-1.472 1.242-2.66 2.724-2.66 10.344-.001 75.865-.001 85.953-.001z"/></g></svg>